<mxfile host="app.diagrams.net" agent="Mozilla/5.0 (X11; Linux x86_64; rv:133.0) Gecko/20100101 Firefox/133.0" version="26.0.4">
  <diagram name="Page-1" id="H6V8cgdp_SErhuXnmQAh">
    <mxGraphModel dx="1434" dy="759" grid="1" gridSize="10" guides="1" tooltips="1" connect="1" arrows="1" fold="1" page="1" pageScale="1" pageWidth="850" pageHeight="1100" math="0" shadow="0">
      <root>
        <mxCell id="0" />
        <mxCell id="1" parent="0" />
        <mxCell id="jzXRX2blPfw8sPH9YpDt-15" value="" style="edgeStyle=orthogonalEdgeStyle;rounded=0;orthogonalLoop=1;jettySize=auto;html=1;" edge="1" parent="1" source="jzXRX2blPfw8sPH9YpDt-1" target="jzXRX2blPfw8sPH9YpDt-2">
          <mxGeometry relative="1" as="geometry" />
        </mxCell>
        <mxCell id="jzXRX2blPfw8sPH9YpDt-1" value="Create Chromosomes of Initial Population" style="rounded=0;whiteSpace=wrap;html=1;fillColor=#f5f5f5;fontColor=#333333;strokeColor=#666666;" vertex="1" parent="1">
          <mxGeometry x="340" y="180" width="250" height="50" as="geometry" />
        </mxCell>
        <mxCell id="jzXRX2blPfw8sPH9YpDt-16" value="" style="edgeStyle=orthogonalEdgeStyle;rounded=0;orthogonalLoop=1;jettySize=auto;html=1;" edge="1" parent="1" source="jzXRX2blPfw8sPH9YpDt-2" target="jzXRX2blPfw8sPH9YpDt-3">
          <mxGeometry relative="1" as="geometry" />
        </mxCell>
        <mxCell id="jzXRX2blPfw8sPH9YpDt-2" value="Express Chromosomes" style="rounded=0;whiteSpace=wrap;html=1;fillColor=#f5f5f5;fontColor=#333333;strokeColor=#666666;" vertex="1" parent="1">
          <mxGeometry x="375" y="260" width="180" height="50" as="geometry" />
        </mxCell>
        <mxCell id="jzXRX2blPfw8sPH9YpDt-17" value="" style="edgeStyle=orthogonalEdgeStyle;rounded=0;orthogonalLoop=1;jettySize=auto;html=1;" edge="1" parent="1" source="jzXRX2blPfw8sPH9YpDt-3" target="jzXRX2blPfw8sPH9YpDt-4">
          <mxGeometry relative="1" as="geometry" />
        </mxCell>
        <mxCell id="jzXRX2blPfw8sPH9YpDt-3" value="Execute Each Program" style="rounded=0;whiteSpace=wrap;html=1;fillColor=#f5f5f5;fontColor=#333333;strokeColor=#666666;" vertex="1" parent="1">
          <mxGeometry x="375" y="340" width="180" height="50" as="geometry" />
        </mxCell>
        <mxCell id="jzXRX2blPfw8sPH9YpDt-18" value="" style="edgeStyle=orthogonalEdgeStyle;rounded=0;orthogonalLoop=1;jettySize=auto;html=1;" edge="1" parent="1" source="jzXRX2blPfw8sPH9YpDt-4" target="jzXRX2blPfw8sPH9YpDt-6">
          <mxGeometry relative="1" as="geometry" />
        </mxCell>
        <mxCell id="jzXRX2blPfw8sPH9YpDt-4" value="Evaluate Fitness" style="rounded=0;whiteSpace=wrap;html=1;fillColor=#f5f5f5;fontColor=#333333;strokeColor=#666666;" vertex="1" parent="1">
          <mxGeometry x="375" y="420" width="180" height="50" as="geometry" />
        </mxCell>
        <mxCell id="jzXRX2blPfw8sPH9YpDt-22" value="" style="edgeStyle=orthogonalEdgeStyle;rounded=0;orthogonalLoop=1;jettySize=auto;html=1;" edge="1" parent="1" source="jzXRX2blPfw8sPH9YpDt-5" target="jzXRX2blPfw8sPH9YpDt-12">
          <mxGeometry relative="1" as="geometry" />
        </mxCell>
        <mxCell id="jzXRX2blPfw8sPH9YpDt-5" value="Selection" style="rounded=0;whiteSpace=wrap;html=1;fillColor=#f5f5f5;fontColor=#333333;strokeColor=#666666;" vertex="1" parent="1">
          <mxGeometry x="375" y="720" width="180" height="50" as="geometry" />
        </mxCell>
        <mxCell id="jzXRX2blPfw8sPH9YpDt-19" value="" style="edgeStyle=orthogonalEdgeStyle;rounded=0;orthogonalLoop=1;jettySize=auto;html=1;" edge="1" parent="1" source="jzXRX2blPfw8sPH9YpDt-6" target="jzXRX2blPfw8sPH9YpDt-7">
          <mxGeometry relative="1" as="geometry" />
        </mxCell>
        <mxCell id="jzXRX2blPfw8sPH9YpDt-27" value="" style="edgeStyle=orthogonalEdgeStyle;rounded=0;orthogonalLoop=1;jettySize=auto;html=1;" edge="1" parent="1" source="jzXRX2blPfw8sPH9YpDt-6" target="jzXRX2blPfw8sPH9YpDt-26">
          <mxGeometry relative="1" as="geometry" />
        </mxCell>
        <mxCell id="jzXRX2blPfw8sPH9YpDt-6" value="Iterate or Terminate" style="rhombus;whiteSpace=wrap;html=1;fillColor=#f5f5f5;strokeColor=#666666;fontColor=#333333;" vertex="1" parent="1">
          <mxGeometry x="382.5" y="500" width="165" height="80" as="geometry" />
        </mxCell>
        <mxCell id="jzXRX2blPfw8sPH9YpDt-20" value="" style="edgeStyle=orthogonalEdgeStyle;rounded=0;orthogonalLoop=1;jettySize=auto;html=1;" edge="1" parent="1" source="jzXRX2blPfw8sPH9YpDt-7" target="jzXRX2blPfw8sPH9YpDt-5">
          <mxGeometry relative="1" as="geometry" />
        </mxCell>
        <mxCell id="jzXRX2blPfw8sPH9YpDt-7" value="Best of Generations?" style="rhombus;whiteSpace=wrap;html=1;fillColor=#f5f5f5;strokeColor=#666666;fontColor=#333333;" vertex="1" parent="1">
          <mxGeometry x="382.5" y="610" width="165" height="80" as="geometry" />
        </mxCell>
        <mxCell id="jzXRX2blPfw8sPH9YpDt-23" value="" style="edgeStyle=orthogonalEdgeStyle;rounded=0;orthogonalLoop=1;jettySize=auto;html=1;" edge="1" parent="1" source="jzXRX2blPfw8sPH9YpDt-12" target="jzXRX2blPfw8sPH9YpDt-14">
          <mxGeometry relative="1" as="geometry" />
        </mxCell>
        <mxCell id="jzXRX2blPfw8sPH9YpDt-12" value="Reproduction" style="rounded=0;whiteSpace=wrap;html=1;fillColor=#f8cecc;strokeColor=#b85450;" vertex="1" parent="1">
          <mxGeometry x="375" y="800" width="180" height="50" as="geometry" />
        </mxCell>
        <mxCell id="jzXRX2blPfw8sPH9YpDt-14" value="New Chromosomes of Next Generation" style="rounded=0;whiteSpace=wrap;html=1;fillColor=#f5f5f5;fontColor=#333333;strokeColor=#666666;" vertex="1" parent="1">
          <mxGeometry x="340" y="880" width="250" height="50" as="geometry" />
        </mxCell>
        <mxCell id="jzXRX2blPfw8sPH9YpDt-24" value="" style="endArrow=classic;html=1;rounded=0;exitX=0;exitY=0.5;exitDx=0;exitDy=0;entryX=0;entryY=0.5;entryDx=0;entryDy=0;" edge="1" parent="1" source="jzXRX2blPfw8sPH9YpDt-14" target="jzXRX2blPfw8sPH9YpDt-2">
          <mxGeometry width="50" height="50" relative="1" as="geometry">
            <mxPoint x="290" y="810" as="sourcePoint" />
            <mxPoint x="300" y="420" as="targetPoint" />
            <Array as="points">
              <mxPoint x="300" y="905" />
              <mxPoint x="300" y="285" />
            </Array>
          </mxGeometry>
        </mxCell>
        <mxCell id="jzXRX2blPfw8sPH9YpDt-25" value="" style="endArrow=classic;html=1;rounded=0;exitX=1;exitY=0.5;exitDx=0;exitDy=0;entryX=1;entryY=0.5;entryDx=0;entryDy=0;" edge="1" parent="1" source="jzXRX2blPfw8sPH9YpDt-7" target="jzXRX2blPfw8sPH9YpDt-14">
          <mxGeometry width="50" height="50" relative="1" as="geometry">
            <mxPoint x="610" y="670" as="sourcePoint" />
            <mxPoint x="660" y="620" as="targetPoint" />
            <Array as="points">
              <mxPoint x="630" y="650" />
              <mxPoint x="630" y="905" />
            </Array>
          </mxGeometry>
        </mxCell>
        <mxCell id="jzXRX2blPfw8sPH9YpDt-26" value="End" style="rounded=0;whiteSpace=wrap;html=1;fillColor=#f5f5f5;fontColor=#333333;strokeColor=#666666;" vertex="1" parent="1">
          <mxGeometry x="620" y="525" width="50" height="30" as="geometry" />
        </mxCell>
        <mxCell id="jzXRX2blPfw8sPH9YpDt-29" value="Terminate" style="text;html=1;align=center;verticalAlign=middle;whiteSpace=wrap;rounded=0;" vertex="1" parent="1">
          <mxGeometry x="538.75" y="510" width="77.5" height="30" as="geometry" />
        </mxCell>
        <mxCell id="jzXRX2blPfw8sPH9YpDt-30" value="Yes" style="text;html=1;align=center;verticalAlign=middle;whiteSpace=wrap;rounded=0;" vertex="1" parent="1">
          <mxGeometry x="547.5" y="620" width="60" height="30" as="geometry" />
        </mxCell>
        <mxCell id="jzXRX2blPfw8sPH9YpDt-31" value="No" style="text;html=1;align=center;verticalAlign=middle;whiteSpace=wrap;rounded=0;" vertex="1" parent="1">
          <mxGeometry x="460" y="580" width="60" height="30" as="geometry" />
        </mxCell>
        <mxCell id="jzXRX2blPfw8sPH9YpDt-49" value="" style="edgeStyle=orthogonalEdgeStyle;rounded=0;orthogonalLoop=1;jettySize=auto;html=1;fillColor=#f8cecc;strokeColor=#b85450;" edge="1" parent="1" source="jzXRX2blPfw8sPH9YpDt-33" target="jzXRX2blPfw8sPH9YpDt-35">
          <mxGeometry relative="1" as="geometry" />
        </mxCell>
        <mxCell id="jzXRX2blPfw8sPH9YpDt-33" value="Two-point Recombination" style="rounded=0;whiteSpace=wrap;html=1;fillColor=#f8cecc;strokeColor=#b85450;" vertex="1" parent="1">
          <mxGeometry x="740" y="800" width="160" height="50" as="geometry" />
        </mxCell>
        <mxCell id="jzXRX2blPfw8sPH9YpDt-48" value="" style="edgeStyle=orthogonalEdgeStyle;rounded=0;orthogonalLoop=1;jettySize=auto;html=1;entryX=0.5;entryY=0;entryDx=0;entryDy=0;fillColor=#f8cecc;strokeColor=#b85450;" edge="1" parent="1" source="jzXRX2blPfw8sPH9YpDt-34" target="jzXRX2blPfw8sPH9YpDt-33">
          <mxGeometry relative="1" as="geometry" />
        </mxCell>
        <mxCell id="jzXRX2blPfw8sPH9YpDt-34" value="One-point Recombination" style="rounded=0;whiteSpace=wrap;html=1;fillColor=#f8cecc;strokeColor=#b85450;" vertex="1" parent="1">
          <mxGeometry x="740" y="720" width="160" height="50" as="geometry" />
        </mxCell>
        <mxCell id="jzXRX2blPfw8sPH9YpDt-35" value="Gene Recombination" style="rounded=0;whiteSpace=wrap;html=1;fillColor=#f8cecc;strokeColor=#b85450;" vertex="1" parent="1">
          <mxGeometry x="740" y="880" width="160" height="50" as="geometry" />
        </mxCell>
        <mxCell id="jzXRX2blPfw8sPH9YpDt-47" value="" style="edgeStyle=orthogonalEdgeStyle;rounded=0;orthogonalLoop=1;jettySize=auto;html=1;fillColor=#f8cecc;strokeColor=#b85450;" edge="1" parent="1" source="jzXRX2blPfw8sPH9YpDt-36" target="jzXRX2blPfw8sPH9YpDt-34">
          <mxGeometry relative="1" as="geometry" />
        </mxCell>
        <mxCell id="jzXRX2blPfw8sPH9YpDt-36" value="Gene Transposition" style="rounded=0;whiteSpace=wrap;html=1;fillColor=#f8cecc;strokeColor=#b85450;" vertex="1" parent="1">
          <mxGeometry x="740" y="640" width="160" height="50" as="geometry" />
        </mxCell>
        <mxCell id="jzXRX2blPfw8sPH9YpDt-46" value="" style="edgeStyle=orthogonalEdgeStyle;rounded=0;orthogonalLoop=1;jettySize=auto;html=1;fillColor=#f8cecc;strokeColor=#b85450;" edge="1" parent="1" source="jzXRX2blPfw8sPH9YpDt-37" target="jzXRX2blPfw8sPH9YpDt-36">
          <mxGeometry relative="1" as="geometry" />
        </mxCell>
        <mxCell id="jzXRX2blPfw8sPH9YpDt-37" value="RIS Transposition" style="rounded=0;whiteSpace=wrap;html=1;fillColor=#f8cecc;strokeColor=#b85450;" vertex="1" parent="1">
          <mxGeometry x="740" y="560" width="160" height="50" as="geometry" />
        </mxCell>
        <mxCell id="jzXRX2blPfw8sPH9YpDt-45" value="" style="edgeStyle=orthogonalEdgeStyle;rounded=0;orthogonalLoop=1;jettySize=auto;html=1;fillColor=#f8cecc;strokeColor=#b85450;" edge="1" parent="1" source="jzXRX2blPfw8sPH9YpDt-38" target="jzXRX2blPfw8sPH9YpDt-37">
          <mxGeometry relative="1" as="geometry" />
        </mxCell>
        <mxCell id="jzXRX2blPfw8sPH9YpDt-38" value="IS Transposition" style="rounded=0;whiteSpace=wrap;html=1;fillColor=#f8cecc;strokeColor=#b85450;" vertex="1" parent="1">
          <mxGeometry x="740" y="480" width="160" height="50" as="geometry" />
        </mxCell>
        <mxCell id="jzXRX2blPfw8sPH9YpDt-44" value="" style="edgeStyle=orthogonalEdgeStyle;rounded=0;orthogonalLoop=1;jettySize=auto;html=1;fillColor=#f8cecc;strokeColor=#b85450;" edge="1" parent="1" source="jzXRX2blPfw8sPH9YpDt-39" target="jzXRX2blPfw8sPH9YpDt-38">
          <mxGeometry relative="1" as="geometry" />
        </mxCell>
        <mxCell id="jzXRX2blPfw8sPH9YpDt-39" value="Inversion" style="rounded=0;whiteSpace=wrap;html=1;fillColor=#f8cecc;strokeColor=#b85450;" vertex="1" parent="1">
          <mxGeometry x="740" y="400" width="160" height="50" as="geometry" />
        </mxCell>
        <mxCell id="jzXRX2blPfw8sPH9YpDt-43" value="" style="edgeStyle=orthogonalEdgeStyle;rounded=0;orthogonalLoop=1;jettySize=auto;html=1;fillColor=#f8cecc;strokeColor=#b85450;" edge="1" parent="1" source="jzXRX2blPfw8sPH9YpDt-40" target="jzXRX2blPfw8sPH9YpDt-39">
          <mxGeometry relative="1" as="geometry" />
        </mxCell>
        <mxCell id="jzXRX2blPfw8sPH9YpDt-40" value="Mutation" style="rounded=0;whiteSpace=wrap;html=1;fillColor=#f8cecc;strokeColor=#b85450;" vertex="1" parent="1">
          <mxGeometry x="740" y="320" width="160" height="50" as="geometry" />
        </mxCell>
        <mxCell id="jzXRX2blPfw8sPH9YpDt-42" value="" style="edgeStyle=orthogonalEdgeStyle;rounded=0;orthogonalLoop=1;jettySize=auto;html=1;fillColor=#f8cecc;strokeColor=#b85450;" edge="1" parent="1" source="jzXRX2blPfw8sPH9YpDt-41" target="jzXRX2blPfw8sPH9YpDt-40">
          <mxGeometry relative="1" as="geometry" />
        </mxCell>
        <mxCell id="jzXRX2blPfw8sPH9YpDt-41" value="Replication" style="rounded=0;whiteSpace=wrap;html=1;fillColor=#f8cecc;strokeColor=#b85450;" vertex="1" parent="1">
          <mxGeometry x="740" y="240" width="160" height="50" as="geometry" />
        </mxCell>
        <mxCell id="jzXRX2blPfw8sPH9YpDt-50" value="" style="rounded=0;whiteSpace=wrap;html=1;fillColor=none;dashed=1;strokeWidth=2;" vertex="1" parent="1">
          <mxGeometry x="710" y="220" width="220" height="740" as="geometry" />
        </mxCell>
        <mxCell id="jzXRX2blPfw8sPH9YpDt-51" value="Reproduction" style="text;html=1;align=center;verticalAlign=middle;whiteSpace=wrap;rounded=0;" vertex="1" parent="1">
          <mxGeometry x="700" y="180" width="90" height="30" as="geometry" />
        </mxCell>
      </root>
    </mxGraphModel>
  </diagram>
</mxfile>
